<mxfile host="app.diagrams.net" agent="Mozilla/5.0 (Windows NT 10.0; Win64; x64) AppleWebKit/537.36 (KHTML, like Gecko) Chrome/130.0.0.0 Safari/537.36" version="24.8.4">
  <diagram name="Page-1" id="msbEtUAkUQ7jzA_uOpLc">
    <mxGraphModel dx="1301" dy="556" grid="1" gridSize="10" guides="1" tooltips="1" connect="1" arrows="1" fold="1" page="1" pageScale="1" pageWidth="827" pageHeight="1169" math="0" shadow="0">
      <root>
        <mxCell id="0" />
        <mxCell id="1" parent="0" />
        <mxCell id="eny0_kykEfMR9t5LfdP7-3" value="" style="edgeStyle=orthogonalEdgeStyle;rounded=0;orthogonalLoop=1;jettySize=auto;html=1;" edge="1" parent="1" source="eny0_kykEfMR9t5LfdP7-1" target="eny0_kykEfMR9t5LfdP7-2">
          <mxGeometry relative="1" as="geometry" />
        </mxCell>
        <mxCell id="eny0_kykEfMR9t5LfdP7-1" value="start" style="ellipse;whiteSpace=wrap;html=1;" vertex="1" parent="1">
          <mxGeometry x="173" y="70" width="120" height="80" as="geometry" />
        </mxCell>
        <mxCell id="eny0_kykEfMR9t5LfdP7-5" value="" style="edgeStyle=orthogonalEdgeStyle;rounded=0;orthogonalLoop=1;jettySize=auto;html=1;" edge="1" parent="1" source="eny0_kykEfMR9t5LfdP7-2" target="eny0_kykEfMR9t5LfdP7-4">
          <mxGeometry relative="1" as="geometry" />
        </mxCell>
        <mxCell id="eny0_kykEfMR9t5LfdP7-2" value="int n,m;" style="shape=parallelogram;perimeter=parallelogramPerimeter;whiteSpace=wrap;html=1;fixedSize=1;" vertex="1" parent="1">
          <mxGeometry x="174" y="220" width="119" height="50" as="geometry" />
        </mxCell>
        <mxCell id="eny0_kykEfMR9t5LfdP7-7" value="" style="edgeStyle=orthogonalEdgeStyle;rounded=0;orthogonalLoop=1;jettySize=auto;html=1;" edge="1" parent="1" source="eny0_kykEfMR9t5LfdP7-4" target="eny0_kykEfMR9t5LfdP7-6">
          <mxGeometry relative="1" as="geometry" />
        </mxCell>
        <mxCell id="eny0_kykEfMR9t5LfdP7-4" value="cout &amp;lt;&amp;lt; &quot;enter n and m : &quot;;" style="shape=trapezoid;perimeter=trapezoidPerimeter;whiteSpace=wrap;html=1;fixedSize=1;" vertex="1" parent="1">
          <mxGeometry x="139.5" y="340" width="187" height="55" as="geometry" />
        </mxCell>
        <mxCell id="eny0_kykEfMR9t5LfdP7-9" value="" style="edgeStyle=orthogonalEdgeStyle;rounded=0;orthogonalLoop=1;jettySize=auto;html=1;" edge="1" parent="1" source="eny0_kykEfMR9t5LfdP7-6" target="eny0_kykEfMR9t5LfdP7-8">
          <mxGeometry relative="1" as="geometry" />
        </mxCell>
        <mxCell id="eny0_kykEfMR9t5LfdP7-6" value="cin &amp;gt;&amp;gt; n &amp;gt;&amp;gt; m;" style="shape=trapezoid;perimeter=trapezoidPerimeter;whiteSpace=wrap;html=1;fixedSize=1;" vertex="1" parent="1">
          <mxGeometry x="173" y="470" width="120" height="55" as="geometry" />
        </mxCell>
        <mxCell id="eny0_kykEfMR9t5LfdP7-11" value="" style="edgeStyle=orthogonalEdgeStyle;rounded=0;orthogonalLoop=1;jettySize=auto;html=1;" edge="1" parent="1" source="eny0_kykEfMR9t5LfdP7-8" target="eny0_kykEfMR9t5LfdP7-10">
          <mxGeometry relative="1" as="geometry" />
        </mxCell>
        <mxCell id="eny0_kykEfMR9t5LfdP7-8" value="int first_result = n++ - m;" style="whiteSpace=wrap;html=1;" vertex="1" parent="1">
          <mxGeometry x="373" y="467.5" width="137" height="60" as="geometry" />
        </mxCell>
        <mxCell id="eny0_kykEfMR9t5LfdP7-15" value="" style="edgeStyle=orthogonalEdgeStyle;rounded=0;orthogonalLoop=1;jettySize=auto;html=1;" edge="1" parent="1" source="eny0_kykEfMR9t5LfdP7-10" target="eny0_kykEfMR9t5LfdP7-14">
          <mxGeometry relative="1" as="geometry" />
        </mxCell>
        <mxCell id="eny0_kykEfMR9t5LfdP7-10" value="cout &amp;lt;&amp;lt; &quot;1) n++ - m = &quot; &amp;lt;&amp;lt; first_result" style="shape=trapezoid;perimeter=trapezoidPerimeter;whiteSpace=wrap;html=1;fixedSize=1;" vertex="1" parent="1">
          <mxGeometry x="598.51" y="467.5" width="191.5" height="60" as="geometry" />
        </mxCell>
        <mxCell id="eny0_kykEfMR9t5LfdP7-17" value="" style="edgeStyle=orthogonalEdgeStyle;rounded=0;orthogonalLoop=1;jettySize=auto;html=1;" edge="1" parent="1" source="eny0_kykEfMR9t5LfdP7-14" target="eny0_kykEfMR9t5LfdP7-16">
          <mxGeometry relative="1" as="geometry" />
        </mxCell>
        <mxCell id="eny0_kykEfMR9t5LfdP7-19" value="" style="edgeStyle=orthogonalEdgeStyle;rounded=0;orthogonalLoop=1;jettySize=auto;html=1;" edge="1" parent="1" source="eny0_kykEfMR9t5LfdP7-14" target="eny0_kykEfMR9t5LfdP7-18">
          <mxGeometry relative="1" as="geometry" />
        </mxCell>
        <mxCell id="eny0_kykEfMR9t5LfdP7-14" value="cout &amp;lt;&amp;lt; &quot;0 is false, 1 is true&quot;" style="shape=trapezoid;perimeter=trapezoidPerimeter;whiteSpace=wrap;html=1;fixedSize=1;" vertex="1" parent="1">
          <mxGeometry x="606.38" y="355" width="175.75" height="60" as="geometry" />
        </mxCell>
        <mxCell id="eny0_kykEfMR9t5LfdP7-21" value="" style="edgeStyle=orthogonalEdgeStyle;rounded=0;orthogonalLoop=1;jettySize=auto;html=1;" edge="1" parent="1" source="eny0_kykEfMR9t5LfdP7-16" target="eny0_kykEfMR9t5LfdP7-20">
          <mxGeometry relative="1" as="geometry" />
        </mxCell>
        <mxCell id="eny0_kykEfMR9t5LfdP7-16" value="bool second_result = m-- &amp;gt; n;" style="shape=hexagon;perimeter=hexagonPerimeter2;whiteSpace=wrap;html=1;fixedSize=1;" vertex="1" parent="1">
          <mxGeometry x="410" y="300" width="170" height="50" as="geometry" />
        </mxCell>
        <mxCell id="eny0_kykEfMR9t5LfdP7-23" value="" style="edgeStyle=orthogonalEdgeStyle;rounded=0;orthogonalLoop=1;jettySize=auto;html=1;" edge="1" parent="1" source="eny0_kykEfMR9t5LfdP7-18" target="eny0_kykEfMR9t5LfdP7-22">
          <mxGeometry relative="1" as="geometry" />
        </mxCell>
        <mxCell id="eny0_kykEfMR9t5LfdP7-18" value="bool third_result = n-- &amp;gt; m;" style="shape=hexagon;perimeter=hexagonPerimeter2;whiteSpace=wrap;html=1;fixedSize=1;" vertex="1" parent="1">
          <mxGeometry x="810" y="300" width="170" height="50" as="geometry" />
        </mxCell>
        <mxCell id="eny0_kykEfMR9t5LfdP7-25" style="edgeStyle=orthogonalEdgeStyle;rounded=0;orthogonalLoop=1;jettySize=auto;html=1;" edge="1" parent="1" source="eny0_kykEfMR9t5LfdP7-20" target="eny0_kykEfMR9t5LfdP7-24">
          <mxGeometry relative="1" as="geometry" />
        </mxCell>
        <mxCell id="eny0_kykEfMR9t5LfdP7-20" value="cout &amp;lt;&amp;lt; &quot;2) m-- &amp;gt; n is &quot; &amp;lt;&amp;lt; second_result" style="shape=trapezoid;perimeter=trapezoidPerimeter;whiteSpace=wrap;html=1;fixedSize=1;" vertex="1" parent="1">
          <mxGeometry x="510" y="200" width="170" height="60" as="geometry" />
        </mxCell>
        <mxCell id="eny0_kykEfMR9t5LfdP7-26" style="edgeStyle=orthogonalEdgeStyle;rounded=0;orthogonalLoop=1;jettySize=auto;html=1;entryX=0.5;entryY=1;entryDx=0;entryDy=0;" edge="1" parent="1" source="eny0_kykEfMR9t5LfdP7-22" target="eny0_kykEfMR9t5LfdP7-24">
          <mxGeometry relative="1" as="geometry" />
        </mxCell>
        <mxCell id="eny0_kykEfMR9t5LfdP7-22" value="cout &amp;lt;&amp;lt; &quot;3) n-- &amp;gt; n is &quot; &amp;lt;&amp;lt; third_result" style="shape=trapezoid;perimeter=trapezoidPerimeter;whiteSpace=wrap;html=1;fixedSize=1;" vertex="1" parent="1">
          <mxGeometry x="710" y="200" width="170" height="60" as="geometry" />
        </mxCell>
        <mxCell id="eny0_kykEfMR9t5LfdP7-24" value="end" style="rounded=1;whiteSpace=wrap;html=1;" vertex="1" parent="1">
          <mxGeometry x="634.26" y="80" width="120" height="60" as="geometry" />
        </mxCell>
      </root>
    </mxGraphModel>
  </diagram>
</mxfile>
